<svg xmlns="http://www.w3.org/2000/svg" xmlns:xlink="http://www.w3.org/1999/xlink" width="100" height="100" viewBox="0 0 100 100"><defs><style>.a{stroke:#707070;}.b{clip-path:url(#a);}</style><clipPath id="a"><rect class="a" width="100" height="100" transform="translate(463 3098)"/></clipPath></defs><g class="b" transform="translate(-463 -3098)"><g transform="translate(463 3075.207)"><path d="M94.629,35.136H68.279c-.028,0-.055,0-.082,0a26.947,26.947,0,0,0-3.11-2.514,1.465,1.465,0,1,0-1.667,2.409,23.812,23.812,0,1,1-5.947-2.988,1.465,1.465,0,0,0,.936-2.776,26.9,26.9,0,1,0,12.474,8.794H94.629a2.444,2.444,0,0,1,2.441,2.441v46.1H85.484a1.465,1.465,0,0,0,0,2.93H97.07v7.693a2.444,2.444,0,0,1-2.441,2.441H5.371A2.444,2.444,0,0,1,2.93,97.234V89.541H78.107a1.465,1.465,0,0,0,0-2.93H2.93v-46.1a2.444,2.444,0,0,1,2.441-2.441H22.839a1.465,1.465,0,0,0,0-2.93H5.371A5.377,5.377,0,0,0,0,40.508V97.234a5.377,5.377,0,0,0,5.371,5.371H37.48v11.448H33.057a1.465,1.465,0,0,0,0,2.93H66.584a1.465,1.465,0,0,0,0-2.93H62.162V102.605H94.629A5.377,5.377,0,0,0,100,97.234V40.508a5.377,5.377,0,0,0-5.371-5.371Zm-35.4,78.917H40.409V102.606H59.233Z"/><path d="M173.718,93.17a2.844,2.844,0,0,0-2.793-2.315h-1.269a1.187,1.187,0,1,0,0,2.373h1.269a.469.469,0,0,1,.461.382l3.511,18.6a1.187,1.187,0,0,0,1.166.966h.8a2.214,2.214,0,1,0,3.3,0h4.881a2.214,2.214,0,1,0,3.3,0h1.068a1.187,1.187,0,1,0,0-2.373H177.047l-.484-2.564h13.26a1.187,1.187,0,0,0,1.166-.966l2.106-11.11,0-.021a1.427,1.427,0,0,0-1.406-1.667H173.965Zm1.77,9.373h3.237l.243,3.322h-2.853Zm8.473,0-.243,3.322h-2.371l-.243-3.322Zm-3.03-2.373-.243-3.322h3.689l-.243,3.322Zm5.167,5.7.243-3.322h3.13l-.63,3.322Zm3.823-5.7h-3.406l.243-3.322h3.793Zm-11.612-3.322.243,3.322H175.04l-.627-3.322Z" transform="translate(-132.831 -53.021)"/><path d="M42.538,262.474h7.018a1.187,1.187,0,0,0,0-2.373H42.538a1.187,1.187,0,0,0,0,2.373Z" transform="translate(-34.809 -186.58)"/><path d="M42.538,296.3h13.1a1.187,1.187,0,1,0,0-2.373h-13.1a1.187,1.187,0,0,0,0,2.373Z" transform="translate(-34.809 -213.76)"/><path d="M416.5,108.37a1.186,1.186,0,0,0-1.187,1.187v2.97h-2.97a1.187,1.187,0,0,0,0,2.373h2.97v2.97a1.187,1.187,0,0,0,2.373,0V114.9h2.969a1.187,1.187,0,0,0,0-2.373h-2.969v-2.97A1.187,1.187,0,0,0,416.5,108.37Z" transform="translate(-327.11 -64.258)"/></g></g></svg>