<svg xmlns="http://www.w3.org/2000/svg" xmlns:xlink="http://www.w3.org/1999/xlink" width="100" height="100" viewBox="0 0 100 100"><defs><style>.a{fill:#fff;stroke:#707070;}.b{clip-path:url(#a);}</style><clipPath id="a"><rect class="a" width="100" height="100" transform="translate(899 3086)"/></clipPath></defs><g class="b" transform="translate(-899 -3086)"><g transform="translate(896.541 3084.361)"><path d="M60.656,88.525H57.377V72.459a1.639,1.639,0,0,0-3.279,0V88.525H11.475V55.738H25.115a1.639,1.639,0,0,0,0-3.279H9.836A1.639,1.639,0,0,0,8.2,54.1V88.525H4.918a1.639,1.639,0,0,0-1.639,1.639v3.279a8.2,8.2,0,0,0,8.2,8.2H54.1a8.2,8.2,0,0,0,8.2-8.2V90.164A1.639,1.639,0,0,0,60.656,88.525Zm-1.639,4.918A4.918,4.918,0,0,1,54.1,98.361H50.82V96.721a1.639,1.639,0,0,0-3.279,0v1.639H18.033V96.721a1.639,1.639,0,0,0-3.279,0v1.639H11.475a4.918,4.918,0,0,1-4.918-4.918V91.8H59.016Z"/><path d="M88.525,13.115H91.8a1.639,1.639,0,0,0,0-3.279H88.525a4.918,4.918,0,0,0-4.918,4.918v1.639H81.967a1.639,1.639,0,0,0,0,3.279h1.639V24.59a1.639,1.639,0,0,0,3.279,0V19.672h1.639a1.639,1.639,0,0,0,0-3.279H86.885V14.754A1.639,1.639,0,0,1,88.525,13.115Z"/><path d="M96.721,3.279H77.049A4.918,4.918,0,0,0,72.131,8.2v3.279a1.639,1.639,0,1,0,3.279,0V8.2a1.639,1.639,0,0,1,1.639-1.639H96.721A1.639,1.639,0,0,1,98.361,8.2V27.869a1.639,1.639,0,0,1-1.639,1.639H77.049a1.639,1.639,0,0,1-1.639-1.639V18.033a1.639,1.639,0,1,0-3.279,0v9.836a4.918,4.918,0,0,0,4.918,4.918H96.721a4.918,4.918,0,0,0,4.918-4.918V8.2a4.918,4.918,0,0,0-4.918-4.918Z"/><path d="M80.328,68.852A6.557,6.557,0,1,0,86.885,62.3,6.557,6.557,0,0,0,80.328,68.852Zm9.836,0a3.279,3.279,0,1,1-3.279-3.279A3.279,3.279,0,0,1,90.164,68.852Z"/><path d="M96.721,54.1H77.049a4.918,4.918,0,0,0-4.918,4.918V78.689a4.918,4.918,0,0,0,4.918,4.918H96.721a4.918,4.918,0,0,0,4.918-4.918V75.41a1.639,1.639,0,0,0-3.279,0v3.279a1.639,1.639,0,0,1-1.639,1.639H77.049a1.639,1.639,0,0,1-1.639-1.639V59.016a1.639,1.639,0,0,1,1.639-1.639H96.721a1.639,1.639,0,0,1,1.639,1.639v9.836a1.639,1.639,0,1,0,3.279,0V59.016A4.918,4.918,0,0,0,96.721,54.1Z"/><path d="M40.115,22.7a1.631,1.631,0,0,0,1.607.066l9.836-4.918a1.639,1.639,0,0,0,0-2.918l-9.836-4.918a1.639,1.639,0,0,0-2.377,1.459v9.836A1.639,1.639,0,0,0,40.115,22.7Zm2.508-8.574,4.525,2.262-4.525,2.262Z"/><path d="M44.262,31.148A14.754,14.754,0,1,0,29.508,16.393,14.754,14.754,0,0,0,44.262,31.148Zm0-26.23A11.475,11.475,0,1,1,32.787,16.393,11.475,11.475,0,0,1,44.262,4.918Z"/><path d="M60.656,37.7a1.639,1.639,0,0,0,1.311-.656l4.918-6.557a1.639,1.639,0,1,0-2.623-1.967l-4.918,6.557A1.639,1.639,0,0,0,60.656,37.7Z"/><path d="M64.262,43.607a1.639,1.639,0,0,0,2.3.328l6.557-4.918a1.639,1.639,0,1,0-1.967-2.623L64.59,41.311a1.639,1.639,0,0,0-.328,2.3Z"/><path d="M80.328,47.213A1.639,1.639,0,0,0,78.361,45.9l-8.2,1.639a1.648,1.648,0,0,0,.328,3.279h.328l8.2-1.639a1.639,1.639,0,0,0,1.311-1.967Z"/><path d="M4.918,47.541H24.59A1.639,1.639,0,0,0,26.23,45.9V19.672a1.639,1.639,0,0,0-1.639-1.639H4.918a1.639,1.639,0,0,0-1.639,1.639V45.9A1.639,1.639,0,0,0,4.918,47.541Zm1.639-26.23H22.951V44.262H6.557Z"/><path d="M18.033,24.59H14.754a1.639,1.639,0,1,0,0,3.279h3.279a1.639,1.639,0,0,0,0-3.279Z"/><path d="M18.033,31.148H11.475a1.639,1.639,0,1,0,0,3.279h6.557a1.639,1.639,0,1,0,0-3.279Z"/><path d="M18.033,37.7H11.475a1.639,1.639,0,1,0,0,3.279h6.557a1.639,1.639,0,1,0,0-3.279Z"/><path d="M59.213,47.049a1.645,1.645,0,0,0-2.852,1.639L63.59,61.2l-26.23,9.836h-.246l-4.262,2.459-2.836,1.639a3.273,3.273,0,0,1-4.475-1.2l-3.279-5.672a3.279,3.279,0,0,1,1.23-4.328l5.672-3.279,4.1,7.1a1.645,1.645,0,1,0,2.852-1.639L31.885,58.8,52.459,41.836,53.131,43a1.645,1.645,0,0,0,2.852-1.639l-1.639-2.836a1.661,1.661,0,0,0-2.475-.443L28.918,57l-6.984,4.033a6.557,6.557,0,0,0-3.016,7.426l-1.639.934a4.914,4.914,0,0,0,2.459,9.18,5.017,5.017,0,0,0,2.459-.656l1.639-.934a6.361,6.361,0,0,0,2.869,1.7,6.213,6.213,0,0,0,1.721.23,6.459,6.459,0,0,0,3.279-.885l1.426-.82L36.41,82.9a4.914,4.914,0,1,0,8.508-4.918l-2.984-5.2,24.59-9.23a1.644,1.644,0,0,0,.852-2.344ZM20.492,75.066a1.638,1.638,0,1,1-1.639-2.836l1.426-.82,1.639,2.836Zm21.574,4.59A1.638,1.638,0,0,1,39.23,81.3l-3.279-5.689,2.721-1.557H38.8Z"/></g></g></svg>