<svg xmlns="http://www.w3.org/2000/svg" xmlns:xlink="http://www.w3.org/1999/xlink" width="100" height="100" viewBox="0 0 100 100"><defs><style>.a{fill:#fff;stroke:#707070;}.b{clip-path:url(#a);}</style><clipPath id="a"><rect class="a" width="100" height="100" transform="translate(1501 3086)"/></clipPath></defs><g class="b" transform="translate(-1501 -3086)"><g transform="translate(1497.667 3079.333)"><path d="M101.667,66.667A1.667,1.667,0,0,0,100,68.333v10A1.667,1.667,0,0,1,98.333,80h-90a1.667,1.667,0,0,1-1.667-1.667V35a1.667,1.667,0,1,0-3.333,0V78.333a5,5,0,0,0,5,5H38.967l-5,10H23.333a1.667,1.667,0,1,0,0,3.333h60A1.667,1.667,0,0,1,85,98.333V100H20a1.667,1.667,0,1,0,0,3.333H86.667a1.667,1.667,0,0,0,1.667-1.667V98.333a5,5,0,0,0-5-5H72.7l-5-10H98.333a5,5,0,0,0,5-5v-10A1.667,1.667,0,0,0,101.667,66.667Zm-32.7,26.667H37.7l5-10H63.967Z"/><path d="M98.333,10h-90a5,5,0,0,0-5,5V28.333a1.667,1.667,0,0,0,3.333,0V15a1.667,1.667,0,0,1,1.667-1.667h90A1.667,1.667,0,0,1,100,15V61.667a1.667,1.667,0,1,0,3.333,0V15a5,5,0,0,0-5-5Z"/><path d="M35,50a5,5,0,0,0-5,5,4.733,4.733,0,0,0,.633,2.367L21.917,67.05A5,5,0,1,0,25,71.667a4.9,4.9,0,0,0-.617-2.367l8.7-9.683A5,5,0,0,0,35,60a5.1,5.1,0,0,0,2.4-.633l7.967,7.083A5,5,0,0,0,50,73.333,1.667,1.667,0,1,0,50,70a1.667,1.667,0,1,1,1.667-1.667,1.667,1.667,0,0,0,3.333,0,5,5,0,0,0-.95-2.917l9.65-13.95a4.816,4.816,0,0,0,1.3.2,5,5,0,0,0,2.15-.5l5,5a5,5,0,1,0,8.733-.483l7.45-9.317a4.883,4.883,0,0,0,1.667.3,5,5,0,1,0,0-10A1.667,1.667,0,1,0,90,40a1.667,1.667,0,1,1-1.667,1.667,1.667,1.667,0,1,0-3.333,0,5,5,0,0,0,.767,2.633l-7.433,9.333a4.883,4.883,0,0,0-1.667-.3,5,5,0,0,0-2.15.5l-5-5a5.009,5.009,0,1,0-8.567.75L51.3,63.533a4.817,4.817,0,0,0-1.3-.2,5.1,5.1,0,0,0-2.4.633l-7.967-7.083A5,5,0,0,0,35,50Zm43.333,8.333a1.667,1.667,0,1,1-1.667-1.667A1.667,1.667,0,0,1,78.333,58.333ZM65,45a1.667,1.667,0,1,1-1.667,1.667A1.667,1.667,0,0,1,65,45ZM20,73.333a1.667,1.667,0,1,1,1.667-1.667A1.667,1.667,0,0,1,20,73.333ZM33.333,55A1.667,1.667,0,1,1,35,56.667,1.667,1.667,0,0,1,33.333,55Z"/><path d="M23.333,16.667A11.667,11.667,0,1,0,35,28.333,11.667,11.667,0,0,0,23.333,16.667Zm8.167,10H25v-6.5a8.333,8.333,0,0,1,6.5,6.5Zm-8.167,10a8.333,8.333,0,0,1-1.667-16.5v8.167A1.667,1.667,0,0,0,23.333,30H31.5A8.333,8.333,0,0,1,23.333,36.667Z"/><circle cx="1.667" cy="1.667" r="1.667" transform="translate(40 25)"/><circle cx="1.667" cy="1.667" r="1.667" transform="translate(46.667 25)"/><circle cx="1.667" cy="1.667" r="1.667" transform="translate(53.333 25)"/><circle cx="1.667" cy="1.667" r="1.667" transform="translate(60 25)"/><circle cx="1.667" cy="1.667" r="1.667" transform="translate(40 31.667)"/><circle cx="1.667" cy="1.667" r="1.667" transform="translate(46.667 31.667)"/><circle cx="1.667" cy="1.667" r="1.667" transform="translate(53.333 31.667)"/><circle cx="1.667" cy="1.667" r="1.667" transform="translate(60 31.667)"/><circle cx="1.667" cy="1.667" r="1.667" transform="translate(66.667 31.667)"/><circle cx="1.667" cy="1.667" r="1.667" transform="translate(73.333 31.667)"/><circle cx="1.667" cy="1.667" r="1.667" transform="translate(40 18.333)"/><circle cx="1.667" cy="1.667" r="1.667" transform="translate(46.667 18.333)"/><path d="M96.667,68.333A1.667,1.667,0,0,0,95,66.667H86.667a1.667,1.667,0,0,0,0,3.333H95A1.667,1.667,0,0,0,96.667,68.333Z"/><path d="M78.333,73.333a1.667,1.667,0,1,0,0,3.333h15a1.667,1.667,0,0,0,0-3.333Z"/><path d="M93.333,16.667h-20a1.667,1.667,0,0,0-1.667,1.667V25a1.667,1.667,0,0,0,1.667,1.667h20A1.667,1.667,0,0,0,95,25V18.333A1.667,1.667,0,0,0,93.333,16.667ZM75,20h3.333v3.333H75Zm6.667,0H85v3.333H81.667Zm10,3.333H88.333V20h3.333Z"/></g></g></svg>