<svg xmlns="http://www.w3.org/2000/svg" xmlns:xlink="http://www.w3.org/1999/xlink" width="100" height="100" viewBox="0 0 100 100"><defs><style>.a{fill:#fff;stroke:#707070;}.b{clip-path:url(#a);}</style><clipPath id="a"><rect class="a" width="100" height="100" transform="translate(899 3086)"/></clipPath></defs><g class="b" transform="translate(-899 -3086)"><g transform="translate(883.001 3070)"><path d="M111.051,44.5A20,20,0,0,0,99.93,38.059a30,30,0,0,0-54.159-8.3,11.664,11.664,0,0,0-14.434,8.459A20,20,0,0,0,20.571,70.395l2.57-2.122A16.667,16.667,0,0,1,36,41c.506,0,1.017.023,1.517.068l.3-3.32c-.6-.054-1.211-.081-1.816-.081q-.494,0-.981.024a8.329,8.329,0,0,1,9.045-4.906c-.419.854-.8,1.729-1.142,2.626l3.119,1.177A26.671,26.671,0,0,1,97.666,46H101a30.1,30.1,0,0,0-.312-4.322,16.749,16.749,0,0,1,11.979,15.989,16.558,16.558,0,0,1-3.029,9.584l2.725,1.919A20,20,0,0,0,111.051,44.5Z" transform="translate(0)"/><ellipse cx="1.5" cy="2" rx="1.5" ry="2" transform="translate(28.999 86)"/><circle cx="2" cy="2" r="2" transform="translate(33.999 86)"/><circle cx="2" cy="2" r="2" transform="translate(38.999 86)"/><rect width="10" height="4" transform="translate(45.999 86)"/><circle cx="1.5" cy="1.5" r="1.5" transform="translate(28.999 73)"/><ellipse cx="2" cy="1.5" rx="2" ry="1.5" transform="translate(33.999 73)"/><ellipse cx="2" cy="1.5" rx="2" ry="1.5" transform="translate(38.999 73)"/><rect width="10" height="3" transform="translate(45.999 73)"/><path d="M87.667,192h-25A6.674,6.674,0,0,0,56,198.667V202a6.651,6.651,0,0,0,2.265,5A6.651,6.651,0,0,0,56,212v3.333a6.651,6.651,0,0,0,2.265,5,6.651,6.651,0,0,0-2.265,5v3.333a6.674,6.674,0,0,0,6.667,6.667h25a6.674,6.674,0,0,0,6.667-6.667v-3.333a6.651,6.651,0,0,0-2.265-5,6.651,6.651,0,0,0,2.265-5V212a6.651,6.651,0,0,0-2.265-5,6.651,6.651,0,0,0,2.265-5v-3.333A6.674,6.674,0,0,0,87.667,192ZM91,225.333v3.333A3.337,3.337,0,0,1,87.667,232h-25a3.337,3.337,0,0,1-3.333-3.333v-3.333A3.337,3.337,0,0,1,62.667,222h25A3.337,3.337,0,0,1,91,225.333ZM91,212v3.333a3.337,3.337,0,0,1-3.333,3.333h-25a3.337,3.337,0,0,1-3.333-3.333V212a3.337,3.337,0,0,1,3.333-3.333h25A3.337,3.337,0,0,1,91,212Zm-28.333-6.667A3.337,3.337,0,0,1,59.333,202v-3.333a3.337,3.337,0,0,1,3.333-3.333h25A3.337,3.337,0,0,1,91,198.667V202a3.337,3.337,0,0,1-3.333,3.333Z" transform="translate(-31.668 -139.333)"/><ellipse cx="1.5" cy="2" rx="1.5" ry="2" transform="translate(28.999 59)"/><circle cx="2" cy="2" r="2" transform="translate(33.999 59)"/><circle cx="2" cy="2" r="2" transform="translate(38.999 59)"/><rect width="10" height="4" transform="translate(45.999 59)"/><path d="M348,232H334.667A6.674,6.674,0,0,0,328,238.667v10a6.674,6.674,0,0,0,6.667,6.667H348a6.674,6.674,0,0,0,6.667-6.667v-10A6.674,6.674,0,0,0,348,232Zm3.333,6.667v.9a6.624,6.624,0,0,0-3.333-.9h-3.576a3.315,3.315,0,0,1-2.981-1.842l-.569-1.139c-.06-.12-.125-.237-.191-.352H348A3.337,3.337,0,0,1,351.333,238.667Zm0,10A3.337,3.337,0,0,1,348,252H334.667a3.337,3.337,0,0,1-3.333-3.333v-10a3.337,3.337,0,0,1,3.333-3.333h.243a3.315,3.315,0,0,1,2.981,1.842l.569,1.139A6.63,6.63,0,0,0,344.424,242H348a3.337,3.337,0,0,1,3.333,3.333Z" transform="translate(-247.001 -171)"/><path d="M348,384H334.667A6.674,6.674,0,0,0,328,390.667v10a6.674,6.674,0,0,0,6.667,6.667H348a6.674,6.674,0,0,0,6.667-6.667v-10A6.674,6.674,0,0,0,348,384Zm3.333,6.667v.9a6.624,6.624,0,0,0-3.333-.9h-3.576a3.315,3.315,0,0,1-2.981-1.842l-.569-1.139c-.06-.12-.125-.237-.191-.352H348A3.337,3.337,0,0,1,351.333,390.667Zm0,10A3.337,3.337,0,0,1,348,404H334.667a3.337,3.337,0,0,1-3.333-3.333v-10a3.337,3.337,0,0,1,3.333-3.333h.243a3.315,3.315,0,0,1,2.981,1.842l.569,1.139A6.63,6.63,0,0,0,344.424,394H348a3.337,3.337,0,0,1,3.333,3.333Z" transform="translate(-247.001 -291.333)"/><path d="M248,280v3.333h5V315a1.667,1.667,0,0,0,1.667,1.667h6.667v-3.333h-5v-30h5V280Z" transform="translate(-183.668 -209)"/></g></g></svg>