<svg xmlns="http://www.w3.org/2000/svg" width="100" height="76.667" viewBox="0 0 100 76.667"><g transform="translate(-16 -72)"><path d="M203,72H129.667A1.667,1.667,0,0,0,128,73.667V122a1.667,1.667,0,0,0,1.667,1.667h45v15H168V142h26.667v3.333H168v3.333h28.333A1.667,1.667,0,0,0,198,147V123.667h5A1.667,1.667,0,0,0,204.667,122V73.667A1.667,1.667,0,0,0,203,72Zm-1.667,3.333V82h-70V75.333ZM178,123.667h3.333V127a1.667,1.667,0,0,0,3.333,0v-3.333H188v15H178Zm16.667,15h-3.333v-15h3.333Zm-63.333-18.333v-35h70v35Z" transform="translate(-88.667)"/><path d="M24.333,281.667H67.667A8.343,8.343,0,0,0,76,273.333a1.667,1.667,0,0,0-1.667-1.667H67.667V260H64.333v11.667H27.667V243.333H36V240H26a1.667,1.667,0,0,0-1.667,1.667v30H17.667A1.667,1.667,0,0,0,16,273.333a8.343,8.343,0,0,0,8.333,8.333ZM40.31,275l1.178,1.178a1.667,1.667,0,0,0,1.179.488h6.667a1.667,1.667,0,0,0,1.179-.488L51.69,275H72.381a5.009,5.009,0,0,1-4.714,3.333H24.333A5.009,5.009,0,0,1,19.619,275Z" transform="translate(0 -133)"/><circle cx="1.5" cy="1.5" r="1.5" transform="translate(44 77)"/><circle cx="1.5" cy="1.5" r="1.5" transform="translate(49 77)"/><ellipse cx="2" cy="1.5" rx="2" ry="1.5" transform="translate(54 77)"/><path d="M160,152h5v3.333h-5Z" transform="translate(-114 -63.333)"/><path d="M208,152h11.667v3.333H208Z" transform="translate(-152 -63.333)"/><path d="M280,152h5v3.333h-5Z" transform="translate(-209 -63.333)"/><path d="M160,192h5v3.333h-5Z" transform="translate(-114 -95)"/><path d="M208,192h6.667v3.333H208Z" transform="translate(-152 -95)"/><path d="M256,192h10v3.333H256Z" transform="translate(-190 -95)"/><path d="M160,232h5v3.333h-5Z" transform="translate(-114 -126.667)"/><path d="M208,232h20v3.333H208Z" transform="translate(-152 -126.667)"/><path d="M160,272h5v3.333h-5Z" transform="translate(-114 -158.333)"/><path d="M208,272h6.667v3.333H208Z" transform="translate(-152 -158.333)"/><path d="M256,272h10v3.333H256Z" transform="translate(-190 -158.333)"/><path d="M333.488,186.343l-5,5a1.667,1.667,0,0,0,0,2.357l5,5,2.357-2.357-3.822-3.822,3.822-3.822Z" transform="translate(-247 -90.522)"/><path d="M420.7,186.343l-2.357,2.357,3.822,3.822-3.822,3.822L420.7,198.7l5-5a1.667,1.667,0,0,0,0-2.357Z" transform="translate(-318.521 -90.522)"/><path d="M0,0H21.082V3.334H0Z" transform="matrix(0.316, -0.949, 0.949, 0.316, 89.418, 111.442)"/></g></svg>